<?xml version="1.0" encoding="UTF-8"?>
<!DOCTYPE svg PUBLIC "-//W3C//DTD SVG 1.1//EN" "http://www.w3.org/Graphics/SVG/1.1/DTD/svg11.dtd">
<svg xmlns="http://www.w3.org/2000/svg" version="1.1" width="1000px" height="1000px" style="shape-rendering:geometricPrecision; text-rendering:geometricPrecision; image-rendering:optimizeQuality; fill-rule:evenodd; clip-rule:evenodd" xmlns:xlink="http://www.w3.org/1999/xlink">
<g><path style="opacity:1" fill="#ffffff" d="M 795.5,178.5 C 814.836,178.333 834.17,178.5 853.5,179C 863.258,179.214 872.925,180.214 882.5,182C 864.928,226.015 840.428,265.515 809,300.5C 772.736,339.146 728.236,354.979 675.5,348C 700.635,359.478 726.635,361.978 753.5,355.5C 754.167,355.833 754.833,356.167 755.5,356.5C 733.522,392.002 701.522,410.835 659.5,413C 643.833,413.333 628.167,413.667 612.5,414C 642.057,426.936 672.224,428.77 703,419.5C 689.871,441.647 672.704,460.48 651.5,476C 629.44,490.412 605.44,495.078 579.5,490C 565.062,486.077 550.729,481.744 536.5,477C 532.487,475.991 528.487,475.324 524.5,475C 542.01,498.965 565.677,512.132 595.5,514.5C 581.313,528.519 565.313,540.019 547.5,549C 520.354,560.596 494.354,558.596 469.5,543C 465.667,540.5 462.5,537.333 460,533.5C 463.498,549.601 472.998,560.768 488.5,567C 493.457,568.489 498.457,569.822 503.5,571C 466.61,586.008 428.61,589.674 389.5,582C 445.35,485.139 519.683,405.139 612.5,342C 647.703,317.887 684.703,296.554 723.5,278C 724.696,277.346 724.696,276.846 723.5,276.5C 589.064,327.105 480.231,410.771 397,527.5C 386.581,542.664 376.915,558.331 368,574.5C 367.333,575.833 366.667,575.833 366,574.5C 352.767,528.596 356.767,484.263 378,441.5C 383.068,432.367 388.401,423.367 394,414.5C 394.893,413.289 395.726,413.289 396.5,414.5C 393.567,437.006 395.733,459.006 403,480.5C 402.645,452.343 406.312,424.676 414,397.5C 420.613,380.589 430.446,365.922 443.5,353.5C 443.833,354 444.167,354.5 444.5,355C 442.537,365.747 442.037,376.58 443,387.5C 443.997,394.157 445.997,400.49 449,406.5C 449.586,376.073 458.919,348.74 477,324.5C 501.193,294.075 531.026,271.742 566.5,257.5C 554.723,273.884 551.223,291.884 556,311.5C 570.53,256.637 605.364,222.137 660.5,208C 674.488,202.919 688.821,199.585 703.5,198C 692.944,211.336 687.777,226.502 688,243.5C 699.04,224.461 713.54,208.628 731.5,196C 751.654,185.464 772.988,179.63 795.5,178.5 Z"/></g>
<g><path style="opacity:1" fill="#ffffff" d="M 345.5,579.5 C 356.45,579.714 367.116,581.547 377.5,585C 386.315,589.895 393.648,596.395 399.5,604.5C 388.653,629.188 372.986,650.355 352.5,668C 346.499,672.336 340.166,676.169 333.5,679.5C 330.141,656.292 331.307,633.292 337,610.5C 339.681,600.109 342.514,589.776 345.5,579.5 Z"/></g>
<g><path style="opacity:1" fill="#ffffff" d="M 710.5,765.5 C 718.133,754.742 720.966,742.742 719,729.5C 714.441,696.199 698.941,669.365 672.5,649C 660.351,639.761 646.684,634.095 631.5,632C 671.021,615.075 710.688,598.408 750.5,582C 769.287,577.023 786.954,579.689 803.5,590C 833.233,610.631 847.733,639.131 847,675.5C 844.794,694.433 835.294,708.267 818.5,717C 782.597,733.453 746.597,749.62 710.5,765.5 Z"/></g>
<g><path style="opacity:1" fill="#ffffff" d="M 581.5,824.5 C 600.06,806.293 606.56,784.293 601,758.5C 595.461,731.315 580.961,710.482 557.5,696C 541.391,687.037 524.391,684.704 506.5,689C 484.009,698.719 461.009,707.385 437.5,715C 403.469,727.681 370.136,742.015 337.5,758C 345.564,758.863 353.564,758.53 361.5,757C 387.944,747.278 414.277,737.278 440.5,727C 451.429,723.02 462.429,719.687 473.5,717C 471.044,719.408 469.211,722.241 468,725.5C 466.062,731.147 464.229,736.813 462.5,742.5C 441.45,750.86 420.783,760.026 400.5,770C 407.514,770.956 414.514,771.623 421.5,772C 435.42,766.203 449.42,760.703 463.5,755.5C 465.127,781.772 476.794,802.105 498.5,816.5C 393.384,798.044 288.384,778.877 183.5,759C 150.497,751.008 127.164,731.508 113.5,700.5C 113.833,700.167 114.167,699.833 114.5,699.5C 130.825,702.179 147.159,702.012 163.5,699C 214.034,685.2 264.701,672.033 315.5,659.5C 316.184,668.923 317.518,678.256 319.5,687.5C 283.2,695.657 249.534,709.823 218.5,730C 219,730.167 219.5,730.333 220,730.5C 258.187,717.66 296.687,705.827 335.5,695C 342.671,693.08 349.338,690.08 355.5,686C 400.42,676.026 444.42,663.026 487.5,647C 480.921,646.393 474.421,645.56 468,644.5C 436.26,653.468 404.426,662.135 372.5,670.5C 382.15,662.016 390.15,652.182 396.5,641C 421.172,634.332 445.838,627.666 470.5,621C 474.167,620.333 477.833,620.333 481.5,621C 511.187,625.252 540.853,629.586 570.5,634C 539.69,644.937 509.024,656.27 478.5,668C 433.728,682.924 389.061,698.258 344.5,714C 320.877,722.979 297.877,733.312 275.5,745C 287.924,745.04 299.924,742.706 311.5,738C 370.202,716.816 429.202,696.483 488.5,677C 515.943,667.111 543.276,656.945 570.5,646.5C 570.833,646.833 571.167,647.167 571.5,647.5C 568.801,650.4 566.467,653.567 564.5,657C 574.612,652.791 584.945,648.791 595.5,645C 618.474,639.659 639.474,643.993 658.5,658C 690.488,681.475 704.988,712.975 702,752.5C 699.893,760.88 696.06,768.38 690.5,775C 654.184,791.602 617.851,808.102 581.5,824.5 Z"/></g>
<g><path style="opacity:1" fill="#ffffff" d="M 372.5,670.5 C 371.833,671.167 371.833,671.167 372.5,670.5 Z"/></g>
<g><path style="opacity:1" fill="#ffffff" d="M 519.5,702.5 C 543.73,703.23 562.23,713.897 575,734.5C 587.036,754.347 589.702,775.347 583,797.5C 575.735,813.09 563.568,822.256 546.5,825C 539.833,825.667 533.167,825.667 526.5,825C 543.201,823.581 555.701,815.748 564,801.5C 571.09,782.592 566.924,766.758 551.5,754C 529.193,743.772 513.026,749.939 503,772.5C 502.333,773.5 502.333,774.5 503,775.5C 511.004,768.501 520.337,764.501 531,763.5C 548.624,767.081 554.624,777.414 549,794.5C 541.164,805.227 530.664,809.06 517.5,806C 496.445,798.94 483.945,784.44 480,762.5C 475.842,739.603 483.009,721.437 501.5,708C 507.412,705.415 513.412,703.581 519.5,702.5 Z"/></g>
<g><path style="opacity:1" fill="#ffffff" d="M 710.5,765.5 C 709.833,766.167 709.833,766.167 710.5,765.5 Z"/></g>
<g><path style="opacity:1" fill="#ffffff" d="M 498.5,816.5 C 499.833,817.167 499.833,817.167 498.5,816.5 Z"/></g>
<g><path style="opacity:1" fill="#ffffff" d="M 581.5,824.5 C 580.833,825.167 580.833,825.167 581.5,824.5 Z"/></g>
</svg>
